<?xml version="1.0" encoding="UTF-8" standalone="no"?><!DOCTYPE svg PUBLIC "-//W3C//DTD SVG 1.1//EN" "http://www.w3.org/Graphics/SVG/1.1/DTD/svg11.dtd"><svg width="100%" height="100%" viewBox="0 0 3125 3125" version="1.1" xmlns="http://www.w3.org/2000/svg" xmlns:xlink="http://www.w3.org/1999/xlink" xml:space="preserve" xmlns:serif="http://www.serif.com/" style="fill-rule:evenodd;clip-rule:evenodd;stroke-linejoin:round;stroke-miterlimit:2;"><rect x="0.539" y="-0.025" width="3124.07" height="3126.82" style="fill:#004966;"/><path d="M2670.73,1827.4c-68.503,-42.265 -159.635,-20.807 -202.083,47.583c-152.414,246.71 -422.507,397.33 -712.5,397.33c-289.993,-0 -560.087,-150.62 -712.5,-397.33c-26.728,-43.191 -74.041,-69.552 -124.834,-69.552c-80.533,-0 -146.802,66.269 -146.802,146.802c0,27.289 7.609,54.045 21.969,77.25c207.875,335.875 567.542,536.375 962.125,536.375c394.583,0 754.167,-200.5 962.125,-536.375c42.304,-68.478 20.88,-159.622 -47.5,-202.083Z" style="fill:#ff765f;fill-rule:nonzero;"/><path d="M1137.23,1010.19c19.147,55.2 71.481,92.44 129.908,92.44c75.43,0 137.5,-62.069 137.5,-137.5c-0,-13.314 -1.934,-26.557 -5.741,-39.315c-70.451,-217.938 -274.708,-366.574 -503.75,-366.574c-229.042,0 -433.299,148.636 -503.75,366.574c-5.047,14.517 -7.624,29.778 -7.624,45.148c0,75.43 62.07,137.5 137.5,137.5c60.609,-0 114.403,-40.074 131.749,-98.148c33.923,-104.678 132.067,-176.041 242.104,-176.041c110.037,-0 208.181,71.363 242.104,176.041l0,-0.125Z" style="fill:#27ccff;fill-rule:nonzero;"/></svg>